<svg width="54" height="54" viewBox="0 0 54 54" fill="none" xmlns="http://www.w3.org/2000/svg">
<rect width="54" height="54" rx="27" fill="#EE212B"/>
<g clip-path="url(#clip0_20_1197)">
<path d="M32.3423 32.1428C35.7474 26.7995 35.3194 27.4661 35.4175 27.3268C36.6572 25.5782 37.3125 23.5201 37.3125 21.375C37.3125 15.6863 32.6962 11 27 11C21.3224 11 16.6875 15.677 16.6875 21.375C16.6875 23.5188 17.3565 25.6307 18.6369 27.4029L21.6576 32.1429C18.4279 32.6392 12.9375 34.1182 12.9375 37.375C12.9375 38.5622 13.7124 40.2541 17.4039 41.5724C19.9815 42.493 23.3894 43 27 43C33.7516 43 41.0625 41.0955 41.0625 37.375C41.0625 34.1177 35.5785 32.6402 32.3423 32.1428ZM20.2031 26.3716C20.1927 26.3554 20.182 26.3397 20.1707 26.3242C19.1053 24.8584 18.5625 23.1213 18.5625 21.375C18.5625 16.6864 22.3379 12.875 27 12.875C31.6524 12.875 35.4375 16.6881 35.4375 21.375C35.4375 23.1241 34.9049 24.8023 33.8971 26.2294C33.8068 26.3486 34.278 25.6166 27 37.0368L20.2031 26.3716ZM27 41.125C19.6254 41.125 14.8125 38.9573 14.8125 37.375C14.8125 36.3115 17.2855 34.5628 22.7655 33.8812L26.2094 39.2851C26.3815 39.5553 26.6796 39.7188 26.9999 39.7188C27.3202 39.7188 27.6184 39.5552 27.7905 39.2851L31.2343 33.8812C36.7144 34.5628 39.1875 36.3115 39.1875 37.375C39.1875 38.9439 34.4179 41.125 27 41.125Z" fill="white"/>
<path d="M27 16.6875C24.4153 16.6875 22.3125 18.7903 22.3125 21.375C22.3125 23.9597 24.4153 26.0625 27 26.0625C29.5847 26.0625 31.6875 23.9597 31.6875 21.375C31.6875 18.7903 29.5847 16.6875 27 16.6875ZM27 24.1875C25.4492 24.1875 24.1875 22.9258 24.1875 21.375C24.1875 19.8242 25.4492 18.5625 27 18.5625C28.5508 18.5625 29.8125 19.8242 29.8125 21.375C29.8125 22.9258 28.5508 24.1875 27 24.1875Z" fill="white"/>
</g>
<defs>
<clipPath id="clip0_20_1197">
<rect width="26" height="54" fill="white" transform="matrix(1 0 0 -1 14 54)"/>
</clipPath>
</defs>
</svg>
