<svg width="24" height="24" viewBox="0 0 24 24" fill="none" xmlns="http://www.w3.org/2000/svg">
<path d="M3.99965 20.7496C3.78705 20.7496 3.60896 20.6777 3.46537 20.534C3.32179 20.3902 3.25 20.2121 3.25 19.9996V19.1054C3.25 18.8929 3.3219 18.7148 3.4657 18.571C3.60952 18.4273 3.78772 18.3554 4.0003 18.3554C4.2129 18.3554 4.39099 18.4273 4.53457 18.571C4.67816 18.7148 4.74995 18.8929 4.74995 19.1054V19.9996C4.74995 20.2121 4.67805 20.3902 4.53425 20.534C4.39043 20.6777 4.21223 20.7496 3.99965 20.7496ZM7.99965 20.7496C7.78705 20.7496 7.60896 20.6777 7.46537 20.534C7.32179 20.3902 7.25 20.2121 7.25 19.9996V14.6054C7.25 14.3929 7.3219 14.2148 7.4657 14.071C7.60952 13.9273 7.78772 13.8554 8.0003 13.8554C8.2129 13.8554 8.39099 13.9273 8.53458 14.071C8.67816 14.2148 8.74995 14.3929 8.74995 14.6054V19.9996C8.74995 20.2121 8.67805 20.3902 8.53425 20.534C8.39043 20.6777 8.21223 20.7496 7.99965 20.7496ZM11.9997 20.7496C11.7871 20.7496 11.609 20.6777 11.4654 20.534C11.3218 20.3902 11.25 20.2121 11.25 19.9996V16.6054C11.25 16.3929 11.3219 16.2148 11.4657 16.071C11.6095 15.9273 11.7877 15.8554 12.0003 15.8554C12.2129 15.8554 12.391 15.9273 12.5346 16.071C12.6782 16.2148 12.75 16.3929 12.75 16.6054V19.9996C12.75 20.2121 12.6781 20.3902 12.5343 20.534C12.3904 20.6777 12.2122 20.7496 11.9997 20.7496ZM15.9997 20.7496C15.7871 20.7496 15.609 20.6777 15.4654 20.534C15.3218 20.3902 15.25 20.2121 15.25 19.9996V15.1054C15.25 14.8929 15.3219 14.7148 15.4657 14.571C15.6095 14.4273 15.7877 14.3554 16.0003 14.3554C16.2129 14.3554 16.391 14.4273 16.5346 14.571C16.6782 14.7148 16.75 14.8929 16.75 15.1054V19.9996C16.75 20.2121 16.6781 20.3902 16.5343 20.534C16.3904 20.6777 16.2122 20.7496 15.9997 20.7496ZM19.9997 20.7496C19.7871 20.7496 19.609 20.6777 19.4654 20.534C19.3218 20.3902 19.25 20.2121 19.25 19.9996V11.1054C19.25 10.8929 19.3219 10.7148 19.4657 10.571C19.6095 10.4273 19.7877 10.3554 20.0003 10.3554C20.2129 10.3554 20.391 10.4273 20.5346 10.571C20.6782 10.7148 20.75 10.8929 20.75 11.1054V19.9996C20.75 20.2121 20.6781 20.3902 20.5343 20.534C20.3904 20.6777 20.2122 20.7496 19.9997 20.7496ZM14 11.7054C13.7654 11.7054 13.5386 11.6604 13.3196 11.5704C13.1006 11.4805 12.9005 11.353 12.7192 11.1881L10.2211 8.69C10.1635 8.6323 10.0897 8.60345 9.99998 8.60345C9.91023 8.60345 9.8365 8.6323 9.7788 8.69L4.52688 13.9419C4.37818 14.0906 4.19997 14.164 3.99227 14.1621C3.78459 14.1602 3.60639 14.0817 3.45767 13.9265C3.31922 13.7778 3.2531 13.6008 3.2593 13.3955C3.26548 13.1903 3.33674 13.0192 3.47307 12.8823L8.71922 7.63617C8.90046 7.45624 9.10058 7.32504 9.31958 7.24257C9.53856 7.16011 9.76536 7.11887 9.99998 7.11887C10.2346 7.11887 10.4652 7.16011 10.6917 7.24257C10.9183 7.32504 11.1146 7.45624 11.2807 7.63617L13.7788 10.1342C13.8365 10.1919 13.9102 10.2208 14 10.2208C14.0897 10.2208 14.1635 10.1919 14.2212 10.1342L19.4731 4.88232C19.6218 4.73361 19.8 4.66021 20.0077 4.66215C20.2154 4.66406 20.3936 4.74259 20.5423 4.89772C20.6807 5.04642 20.7469 5.22341 20.7407 5.4287C20.7345 5.63398 20.6632 5.80506 20.5269 5.94192L15.2807 11.1881C15.1146 11.353 14.9183 11.4805 14.6917 11.5704C14.4652 11.6604 14.2346 11.7054 14 11.7054Z" fill="#21944E"/>
</svg>
